<svg xmlns="http://www.w3.org/2000/svg" xml:space="preserve" viewBox="0 0 100 100"><path d="M31.436 25.673H69.2v2.178H31.436zm0 7.988H69.2v2.179H31.436zm0 8.714H69.2v2.179H31.436zm0 7.988H69.2v2.179H31.436zm0 8.714H69.2v2.179H31.436z"/><path d="M76.823 8.79H24.538c-3.604 0-6.536 2.932-6.536 6.536v69.349c0 3.604 2.932 6.536 6.536 6.536h42.119c9.21 0 16.702-7.492 16.702-16.702V15.326c0-3.605-2.932-6.536-6.536-6.536zM22.358 84.675V15.326c0-1.202.979-2.179 2.18-2.179h52.285c1.2 0 2.178.977 2.178 2.179v56.096H62.663v15.432H24.538c-1.201 0-2.18-.978-2.18-2.179zm44.662 2.16V75.779h11.916c-.625 6.094-5.706 10.873-11.916 11.056z"/></svg>