<svg width="100" height="100" viewBox="0 0 100 100" fill="none" xmlns="http://www.w3.org/2000/svg">
<path d="M52.8 34.8C51.3 33.2 48.7 33.2 47.2 34.8C47.2 34.8 35.1 46.9 34.7 47.3C33.1 48.9 33.1 51.4 34.7 53C36.2 54.6 38.8 54.6 40.4 53C40.8 52.6 46 47.4 46 47.4V76C46 78.2 47.9 80.1 50 80.1C52.2 80.1 54 78.2 54 76V47.4C54 47.4 59.5 52.8 59.6 53C61.2 54.6 63.7 54.6 65.4 53C66.9 51.4 66.9 48.9 65.4 47.3C65.3 47.1 52.8 34.8 52.8 34.8ZM84.3 25.6C84.3 25.6 83.9 25.2 64.9 6.2C64.4 5.6 63.3 5 62 5H18.6C16.3 5 14.5 6.8 14.5 9.1V90.9C14.5 93.2 16.3 95 18.6 95H81.4C83.7 95 85.4 93.2 85.4 90.9V28.5C85.5 27.2 85 26.2 84.3 25.6ZM22.7 13.2H57.9L58 28.5C58 30.7 59.8 32.5 62 32.5H77.3V86.8H22.7V13.2Z" fill="#444444"/>
</svg>
